<?xml version="1.0" standalone="no"?>
<!DOCTYPE svg PUBLIC "-//W3C//DTD SVG 20010904//EN"
 "http://www.w3.org/TR/2001/REC-SVG-20010904/DTD/svg10.dtd">
<svg version="1.0" xmlns="http://www.w3.org/2000/svg"
 width="314.000000pt" height="419.000000pt" viewBox="0 0 314.000000 419.000000"
 preserveAspectRatio="xMidYMid meet">
<metadata>
Created by potrace 1.16, written by Peter Selinger 2001-2019
</metadata>
<g transform="translate(0.000000,419.000000) scale(0.100000,-0.100000)"
fill="#000000" stroke="none">
<path d="M1747 3379 c-46 -11 -78 -27 -165 -83 -95 -62 -105 -76 -152 -211
-42 -120 -75 -355 -51 -355 19 0 51 88 62 169 13 97 46 150 93 151 15 0 17 -5
11 -27 -3 -16 -17 -39 -31 -54 -29 -30 -30 -44 -5 -91 19 -39 31 -40 31 -3 0
12 3 25 8 29 7 7 8 11 11 37 0 5 6 7 12 3 6 -3 15 -1 19 5 11 19 40 -15 40
-46 l0 -25 35 22 c27 17 38 19 55 10 11 -6 20 -15 20 -20 0 -5 24 -20 52 -33
46 -21 50 -25 30 -31 -28 -9 -28 -13 7 -68 36 -57 43 -61 100 -60 33 0 50 6
62 21 9 11 28 23 43 27 32 8 34 34 4 53 -22 14 -19 15 51 33 41 10 84 27 96
38 12 12 25 16 31 11 5 -5 27 -11 49 -14 23 -4 34 -3 27 2 -11 7 -11 9 2 14 9
4 16 2 16 -3 0 -19 43 -4 51 18 10 25 -10 81 -37 103 -8 6 -14 16 -14 22 0 5
-17 30 -37 56 -21 25 -42 54 -48 64 -5 11 -14 20 -20 20 -5 0 -19 12 -30 26
-30 38 -54 61 -64 61 -5 0 -11 4 -13 8 -6 15 -133 79 -183 92 -27 8 -56 20
-63 27 -15 15 -49 15 -105 2z"/>
<path d="M1297 2668 c-9 -7 -32 -35 -50 -63 -30 -46 -36 -50 -90 -61 -33 -6
-72 -21 -87 -33 -17 -12 -52 -23 -87 -27 -32 -4 -78 -18 -102 -31 -24 -12 -52
-23 -62 -23 -45 0 -148 -72 -221 -155 -92 -103 -123 -160 -142 -255 -13 -66
-36 -255 -36 -295 0 -8 -7 -15 -15 -15 -8 0 -15 -5 -15 -11 0 -5 5 -7 12 -3 8
5 9 -4 5 -32 -4 -21 -7 -46 -7 -54 0 -9 -21 -23 -52 -34 -29 -10 -78 -29 -108
-43 -34 -16 -56 -21 -58 -14 -2 6 -10 11 -18 11 -12 0 -16 -12 -13 -37 2 -13
-33 -25 -43 -15 -12 12 -1 35 13 27 5 -4 9 -3 9 0 0 3 -14 11 -30 16 -17 6
-30 15 -30 20 0 12 -41 11 -59 0 -12 -8 -12 -13 2 -35 10 -14 21 -25 25 -25
13 2 52 -13 52 -20 0 -3 -9 -12 -21 -19 -18 -12 -24 -11 -45 9 l-24 22 0 -154
0 -155 35 4 c19 2 35 2 35 -1 0 -3 15 -57 34 -119 56 -185 75 -259 65 -253 -5
4 -9 12 -9 20 0 21 -78 24 -97 3 -9 -10 -20 -15 -25 -12 -5 3 -8 -6 -6 -22 3
-30 -18 -45 -25 -17 -3 10 -5 -26 -6 -79 0 -54 3 -98 8 -98 5 0 11 5 13 11 2
6 14 8 31 4 l27 -7 -21 -19 c-23 -20 -20 -49 5 -49 8 0 43 19 78 43 95 65 92
65 111 -11 29 -114 55 -261 73 -414 l17 -148 477 0 478 0 134 168 c73 92 149
187 168 212 19 25 37 47 40 50 3 3 24 30 48 62 24 31 54 68 67 82 14 15 30 36
36 48 10 19 16 20 103 13 50 -3 122 -13 161 -21 43 -9 113 -14 186 -12 l116 2
11 28 c9 24 16 28 49 28 43 0 69 13 59 29 -9 14 -36 15 -36 1 0 -13 -37 -13
-45 -1 -7 13 8 21 63 35 44 11 74 38 59 52 -9 9 -38 -16 -31 -27 3 -5 -1 -9
-10 -9 -8 0 -17 6 -19 13 -4 9 -8 9 -14 1 -12 -17 -50 -26 -58 -14 -8 13 -65
13 -65 0 0 -5 5 -10 10 -10 21 0 9 -16 -20 -27 -16 -6 -30 -8 -30 -3 0 9 -79
40 -103 40 -9 0 -17 -7 -17 -15 0 -9 9 -15 24 -15 25 0 43 -17 40 -37 -1 -7
-2 -17 -3 -23 -2 -14 -28 -12 -43 4 -9 10 -21 11 -47 4 -39 -11 -89 -6 -201
19 -86 19 -103 29 -97 55 3 10 -1 25 -9 33 -9 8 -10 16 -4 20 16 10 12 55 -5
55 -8 0 -15 5 -15 10 0 6 7 10 16 10 12 0 15 6 10 23 -3 12 -6 26 -6 30 0 5
-4 5 -10 2 -5 -3 -10 0 -10 9 0 8 6 16 13 18 6 3 13 22 13 44 3 78 6 110 17
163 8 42 13 50 19 35 6 -13 7 -10 4 12 -5 32 12 84 27 84 4 0 35 -11 69 -25
34 -14 62 -25 64 -25 1 0 4 18 6 40 3 39 2 40 -42 58 -25 11 -57 22 -73 26
-25 6 -27 9 -21 45 15 93 40 164 60 168 30 5 64 -18 64 -43 0 -27 17 -41 32
-26 18 18 68 -14 68 -43 0 -19 5 -25 22 -25 22 0 93 -68 82 -79 -3 -3 -24 -13
-46 -22 l-41 -16 67 -6 c77 -7 186 -29 186 -37 0 -3 18 -6 40 -7 22 -1 56 -9
76 -18 20 -8 57 -15 83 -15 25 -1 62 -6 81 -13 19 -7 57 -12 85 -12 61 0 71
22 28 63 -15 15 -40 42 -55 60 -15 17 -40 34 -55 38 -16 3 -43 13 -62 21 -28
13 -35 13 -42 2 -5 -8 -9 -10 -9 -5 0 4 -11 1 -24 -7 -22 -15 -25 -15 -38 1
-20 24 -41 75 -27 67 6 -4 9 0 7 11 -8 47 149 107 190 72 21 -19 55 -31 47
-18 -3 6 -13 10 -21 10 -8 0 -14 6 -14 14 0 21 -63 72 -107 86 -21 7 -42 16
-47 21 -6 5 -24 9 -40 9 -42 0 -84 28 -137 89 -24 28 -48 51 -53 51 -14 0 -70
51 -88 81 -10 16 -25 29 -33 29 -10 0 -25 20 -37 48 -12 26 -26 52 -33 57 -6
6 -37 49 -69 98 -32 48 -63 90 -70 95 -6 4 -19 19 -28 33 -21 33 -83 69 -168
99 -47 17 -77 35 -107 67 -24 25 -43 51 -43 59 0 23 -16 16 -29 -13 l-12 -27
-30 32 c-34 37 -59 41 -66 12 -8 -28 -27 -25 -69 13 -45 39 -76 104 -77 163 0
46 -10 54 -40 32z m218 -1594 c94 -3 174 -7 179 -8 13 -3 18 -44 6 -51 -6 -3
-10 -21 -10 -39 0 -17 -6 -38 -12 -44 -10 -10 -10 -17 1 -34 10 -16 10 -22 1
-28 -9 -5 -10 -17 -5 -36 5 -16 7 -38 6 -48 -2 -10 3 -30 10 -43 11 -20 11
-26 -1 -33 -8 -5 -19 -6 -25 -2 -5 4 -17 5 -27 4 -9 -2 -19 2 -23 8 -3 5 -15
10 -25 10 -17 0 -74 22 -132 51 -13 7 -16 4 -13 -13 l4 -21 -22 22 c-13 11
-29 21 -35 21 -7 0 -12 9 -12 20 0 11 -5 20 -11 20 -6 0 -8 -9 -4 -20 7 -23 3
-24 -43 -11 -18 5 -65 11 -105 12 -39 1 -75 4 -79 6 -4 2 17 52 47 111 62 119
105 168 139 157 11 -3 98 -9 191 -11z"/>
<path d="M1882 2564 c2 -30 -15 -64 -33 -64 -16 0 -50 40 -43 51 4 7 -2 6 -16
-1 -12 -7 -25 -21 -27 -31 -3 -10 -9 -19 -14 -19 -5 0 -9 -4 -9 -10 0 -5 10
-10 23 -10 12 0 33 -9 45 -19 22 -16 23 -19 8 -34 -21 -21 -20 -34 5 -47 16
-9 25 -8 42 6 63 52 95 88 90 100 -4 10 4 14 28 15 19 0 28 3 21 6 -7 3 -24
16 -37 29 -13 13 -33 24 -44 24 -11 0 -25 8 -31 18 -9 14 -10 12 -8 -14z"/>
<path d="M185 1950 c-22 -4 -34 -8 -28 -9 7 0 25 -19 39 -41 29 -43 49 -48
137 -33 37 6 38 6 35 47 l-3 41 -70 1 c-38 1 -88 -2 -110 -6z"/>
<path d="M2882 1208 c6 -18 35 -59 65 -91 59 -65 67 -97 32 -141 l-20 -26 41
0 c54 0 104 25 95 48 -4 9 -10 28 -13 42 -7 34 -55 106 -86 131 -24 19 -112
69 -121 69 -2 0 1 -15 7 -32z"/>
</g>
</svg>
