<?xml version="1.0" standalone="no"?>
<!DOCTYPE svg PUBLIC "-//W3C//DTD SVG 20010904//EN"
 "http://www.w3.org/TR/2001/REC-SVG-20010904/DTD/svg10.dtd">
<svg version="1.0" xmlns="http://www.w3.org/2000/svg"
 width="314.000000pt" height="419.000000pt" viewBox="0 0 314.000000 419.000000"
 preserveAspectRatio="xMidYMid meet">
<metadata>
Created by potrace 1.16, written by Peter Selinger 2001-2019
</metadata>
<g transform="translate(0.000000,419.000000) scale(0.100000,-0.100000)"
fill="#000000" stroke="none">
<path d="M1747 3379 c-46 -11 -78 -27 -165 -83 -97 -63 -107 -77 -156 -226
-41 -123 -70 -340 -46 -340 18 0 50 88 61 169 13 97 46 150 93 151 15 0 17 -5
11 -27 -3 -16 -17 -39 -31 -54 -29 -30 -30 -47 -6 -88 20 -37 32 -40 32 -8 0
13 3 27 8 31 7 7 8 11 11 37 0 5 6 7 12 3 6 -3 15 0 20 7 8 11 12 10 24 -5 8
-11 15 -28 15 -38 0 -22 13 -23 45 -2 18 12 28 13 44 4 12 -6 21 -15 21 -20 0
-5 24 -20 52 -33 46 -21 50 -25 30 -31 -28 -9 -28 -13 7 -68 36 -57 43 -61
100 -60 33 0 50 6 62 21 9 11 28 23 43 27 32 8 34 30 4 53 l-22 18 40 7 c60
11 107 28 130 48 11 10 24 14 30 9 5 -5 27 -11 49 -14 23 -4 34 -3 27 2 -11 7
-11 9 2 14 9 4 16 2 16 -3 0 -19 43 -4 51 18 10 25 -10 81 -37 103 -8 6 -14
16 -14 22 0 5 -17 30 -37 56 -21 25 -42 54 -48 64 -5 11 -14 20 -20 20 -5 0
-19 12 -30 26 -30 38 -54 61 -64 61 -5 0 -11 4 -13 8 -7 17 -127 76 -188 93
-36 10 -60 18 -55 19 6 0 3 5 -5 10 -18 12 -51 11 -103 -1z"/>
<path d="M1297 2668 c-9 -7 -32 -35 -50 -63 -29 -45 -36 -50 -88 -60 -31 -7
-70 -21 -86 -33 -18 -13 -54 -24 -89 -28 -33 -4 -79 -18 -103 -31 -24 -12 -52
-23 -62 -23 -45 0 -148 -72 -221 -155 -92 -103 -123 -160 -142 -255 -13 -66
-36 -255 -36 -295 0 -8 -8 -15 -17 -15 -14 0 -15 -2 -5 -9 9 -6 11 -22 7 -57
-7 -49 -8 -50 -59 -68 -28 -10 -76 -29 -106 -43 -34 -16 -56 -21 -58 -14 -2 6
-10 11 -18 11 -12 0 -16 -12 -13 -37 2 -13 -33 -25 -43 -15 -13 13 -1 35 14
26 7 -4 8 -2 4 4 -4 7 -16 12 -27 12 -11 0 -22 7 -25 15 -7 16 -41 20 -63 6
-20 -13 1 -44 43 -61 42 -16 43 -21 15 -38 -18 -11 -24 -11 -38 2 -10 9 -21
16 -24 16 -4 0 -7 -67 -7 -148 l0 -148 34 4 c33 4 35 2 45 -34 6 -22 31 -106
56 -188 24 -83 42 -152 39 -155 -2 -3 -7 5 -11 17 -12 47 -134 16 -130 -33 3
-24 -20 -31 -26 -8 -3 10 -5 -27 -6 -81 -1 -78 2 -97 11 -88 13 13 50 16 61 5
4 -3 -2 -17 -14 -29 -21 -22 -19 -44 4 -44 7 0 42 20 79 45 37 25 72 45 78 45
6 0 8 5 4 11 -3 6 -19 9 -35 5 -24 -5 -29 -2 -29 14 0 11 7 20 15 20 8 0 15 9
15 20 0 42 18 17 44 -64 37 -114 61 -239 87 -448 l22 -178 477 0 478 0 94 118
c52 64 122 153 157 197 35 44 73 92 85 107 11 15 55 70 96 123 l75 97 90 -7
c50 -4 121 -13 159 -21 43 -9 113 -13 187 -12 110 3 138 8 107 21 -8 4 -7 6 3
6 9 1 19 8 23 16 3 10 19 15 43 15 44 0 69 13 59 29 -9 14 -36 15 -36 1 0 -13
-37 -13 -45 -1 -7 13 20 27 67 36 45 9 67 30 49 48 -9 9 -13 6 -18 -11 -4 -17
-11 -22 -25 -18 -11 2 -31 0 -44 -6 -18 -9 -28 -8 -36 0 -7 7 -26 12 -42 12
-23 0 -27 -3 -18 -12 16 -16 15 -28 -2 -28 -8 0 -22 -10 -30 -22 -16 -22 -16
-22 -16 -2 0 16 -11 26 -43 38 -53 20 -77 20 -77 1 0 -9 9 -15 24 -15 30 0 50
-23 41 -50 -7 -21 -39 -28 -50 -10 -4 6 -26 8 -55 4 -52 -7 -254 29 -278 49
-7 6 -11 19 -9 29 3 10 -1 25 -9 33 -9 8 -10 16 -4 20 16 10 12 55 -5 55 -19
0 -19 10 0 24 16 12 10 60 -6 50 -5 -3 -9 1 -9 9 0 8 6 17 13 20 8 3 13 29 15
78 2 93 22 185 34 167 6 -9 8 -4 4 14 -6 28 11 78 26 78 5 0 36 -11 70 -25 34
-14 62 -25 64 -25 1 0 4 18 6 40 3 39 2 40 -42 58 -25 11 -57 22 -73 26 -25 6
-27 9 -21 45 15 93 40 164 60 168 30 5 64 -18 64 -43 0 -28 16 -40 35 -24 20
17 65 -15 65 -46 0 -18 5 -24 22 -24 22 0 93 -68 82 -79 -3 -3 -24 -13 -46
-22 l-41 -16 67 -6 c77 -7 186 -29 186 -37 0 -3 18 -6 40 -7 22 -1 56 -9 76
-18 20 -8 59 -15 86 -15 27 0 63 -6 81 -13 49 -19 131 -16 135 5 4 22 -84 114
-92 96 -3 -7 -4 -4 -1 8 6 23 -27 44 -70 44 -14 0 -25 5 -25 11 0 13 -77 4
-95 -11 -8 -7 -17 -4 -27 8 -20 24 -41 75 -27 67 6 -4 9 0 7 11 -8 45 148 107
187 74 12 -10 15 -10 15 3 0 22 -62 73 -107 87 -21 7 -42 16 -47 21 -6 5 -23
9 -38 9 -42 0 -77 21 -134 82 -29 29 -68 64 -88 78 -20 14 -45 40 -56 58 -10
17 -26 32 -35 32 -10 0 -25 20 -37 48 -12 26 -27 52 -33 57 -7 6 -38 49 -69
97 -31 48 -62 91 -69 95 -7 5 -20 20 -29 34 -21 33 -83 69 -168 99 -47 17 -77
35 -107 67 -24 25 -43 51 -43 59 0 24 -19 16 -26 -11 -3 -14 -9 -25 -13 -25
-4 0 -18 11 -31 25 -26 28 -58 33 -66 10 -9 -23 -30 -18 -70 18 -45 39 -76
104 -77 163 0 46 -10 54 -40 32z m218 -1594 c94 -3 174 -7 179 -8 13 -3 18
-44 6 -51 -6 -3 -10 -21 -10 -39 0 -17 -6 -38 -12 -44 -10 -10 -10 -17 1 -34
10 -16 10 -22 1 -28 -9 -5 -10 -17 -5 -36 5 -16 7 -38 6 -48 -2 -10 3 -30 10
-43 11 -20 11 -26 0 -32 -17 -11 -99 9 -167 40 -46 22 -74 24 -74 7 0 -6 -10
-2 -22 9 -17 15 -48 24 -118 32 -53 7 -104 9 -113 5 -10 -3 -24 -1 -32 6 -8 7
-15 9 -15 6 0 -4 -4 -5 -10 -1 -14 9 98 221 133 251 21 17 37 23 51 19 12 -3
98 -8 191 -11z"/>
<path d="M1885 2565 c2 -20 -3 -37 -17 -52 l-21 -23 -28 32 c-24 26 -31 29
-44 18 -8 -7 -15 -19 -15 -26 0 -8 -4 -14 -10 -14 -5 0 -10 -4 -10 -10 0 -5 8
-10 17 -10 9 0 33 -8 53 -17 l36 -18 -26 -22 c-24 -23 -25 -23 -6 -38 11 -8
23 -15 26 -15 3 0 31 23 63 50 36 32 54 56 50 65 -4 11 3 15 28 16 19 0 28 3
21 6 -7 3 -25 16 -39 29 -14 13 -36 24 -49 24 -13 0 -25 8 -28 18 -3 9 -4 4
-1 -13z"/>
<path d="M185 1950 c-22 -4 -34 -8 -28 -9 7 0 25 -19 39 -41 29 -43 49 -48
137 -33 37 6 38 6 35 47 l-3 41 -70 1 c-38 1 -88 -2 -110 -6z"/>
<path d="M2885 1204 c8 -20 37 -61 65 -91 56 -61 63 -94 29 -137 l-20 -26 41
0 c54 0 104 25 95 48 -4 9 -10 28 -13 42 -6 31 -58 109 -89 133 -23 18 -109
67 -119 67 -2 0 2 -16 11 -36z"/>
</g>
</svg>
